<svg width="25" height="24" viewBox="0 0 25 24" fill="none" xmlns="http://www.w3.org/2000/svg">
<path d="M8.16666 18L12.1667 14.95L16.1667 18L14.6667 13.05L18.6667 10.2H13.7667L12.1667 5L10.5667 10.2H5.66666L9.66666 13.05L8.16666 18ZM12.1667 22C10.7833 22 9.48332 21.7375 8.26666 21.2125C7.04999 20.6875 5.99166 19.975 5.09166 19.075C4.19166 18.175 3.47916 17.1167 2.95416 15.9C2.42916 14.6833 2.16666 13.3833 2.16666 12C2.16666 10.6167 2.42916 9.31667 2.95416 8.1C3.47916 6.88333 4.19166 5.825 5.09166 4.925C5.99166 4.025 7.04999 3.3125 8.26666 2.7875C9.48332 2.2625 10.7833 2 12.1667 2C13.55 2 14.85 2.2625 16.0667 2.7875C17.2833 3.3125 18.3417 4.025 19.2417 4.925C20.1417 5.825 20.8542 6.88333 21.3792 8.1C21.9042 9.31667 22.1667 10.6167 22.1667 12C22.1667 13.3833 21.9042 14.6833 21.3792 15.9C20.8542 17.1167 20.1417 18.175 19.2417 19.075C18.3417 19.975 17.2833 20.6875 16.0667 21.2125C14.85 21.7375 13.55 22 12.1667 22ZM12.1667 20C14.4 20 16.2917 19.225 17.8417 17.675C19.3917 16.125 20.1667 14.2333 20.1667 12C20.1667 9.76667 19.3917 7.875 17.8417 6.325C16.2917 4.775 14.4 4 12.1667 4C9.93332 4 8.04166 4.775 6.49166 6.325C4.94166 7.875 4.16666 9.76667 4.16666 12C4.16666 14.2333 4.94166 16.125 6.49166 17.675C8.04166 19.225 9.93332 20 12.1667 20Z" fill="#1D1B20"/>
</svg>
